/* XPM */
static char *result[] = {
/* columns rows colors chars-per-pixel */
"16 16 10 1 ",
"  c #060608",
". c #122020",
"X c #422433",
"o c #24523B",
"O c #1A7A3E",
"+ c #2D6B47",
"@ c #5A4E44",
"# c #796755",
"$ c #A08662",
"% c None",
/* pixels */
"%%%% .... o....o",
"%%%%     oo.o.oO",
"%%%%++++ o.oo OO",
"%%%+++++ o.o  OO",
"%%%+++++    @ OO",
"%%%++++++++X@@ O",
"%%%%+++++++X#@@ ",
"%%%++++++++X##@@",
"%%+++++++++X#@#@",
"%%++++++++++X$##",
"%%+++++++++++X$$",
"%%%%%+++++++++XX",
"%%%%%+++++++++++",
"%%%%%%%%%+++++++",
"%%%%%%%%%%+++%++",
"%%%%%%%%%%%++%%+"
};
