/* XPM */
static char *result[] = {
/* columns rows colors chars-per-pixel */
"16 16 7 1 ",
"  c #060608",
". c #122020",
"X c #24523B",
"o c #1A7A3E",
"O c #14A02E",
"+ c #59C135",
"@ c None",
/* pixels */
"X@@@@@@@@@@@@@@@",
"oX@@@@@@@@@@@@@@",
"XoX@XXXX@@@@@@@@",
"Xo .OOOX@@@@@@@@",
"oo .OOOXXXXX@@@@",
"oooOOoOXoooX@@@@",
"oXXOoOXooXoX@@@@",
"XOOXOOooXooX@@@@",
"OOOOXXXXoXXXX@@@",
"OOOXOOOXooOOOX@@",
"OOOO+++XoOOOOOX@",
"OOO+++++XOooOOOX",
"Oo++O++OOXOOoOOX",
"Oo+O+++OOXXOOOOX",
"OOo++XOOOXoXXXXX",
"+OOooOXXXXXooX.@"
};
