/* XPM */
static char *result[] = {
/* columns rows colors chars-per-pixel */
"16 16 8 1 ",
"  c #060608",
". c #122020",
"X c #24523B",
"o c #156235",
"O c #1A7A3E",
"+ c #14A02E",
"@ c #59C135",
"# c None",
/* pixels */
"@+X+++XOOOOoXOO.",
"@OXXXXXOoo++oXO.",
"@OX++OOOX+O++XO.",
"OX+++XOXX++O++..",
"XOXoo+XOOX++++.#",
"OO.++o+XXO.+++.#",
"OXOXXXXOXO..... ",
"XOO+O++.OO.OXXO ",
"OX.++O+.....OOX ",
"XO..+++..XXo    ",
"XO.X....XOOOO ##",
"O.XOOoXXXOXXOO #",
"..OXOOo...OOXO #",
"X.OOXXO.XX OOO #",
"X..OOOO..XX    #",
".XX....oo.X ####"
};
