/* XPM */
static char *result[] = {
/* columns rows colors chars-per-pixel */
"16 16 9 1 ",
"  c #249FDE",
". c #285CC4",
"X c #8E5252",
"o c #BA756A",
"O c #5B3138",
"+ c #5DAF8D",
"@ c #92DCBA",
"# c #328464",
"$ c white",
/* pixels */
"                ",
"                ",
"                ",
"                ",
"                ",
"                ",
"      .         ",
"       .........",
"       .XoXOXXoo",
"      .OO+O+OXOX",
"      .XXO+@+O#O",
"      .oXXO#@#@+",
"       .XO+@@+@@",
"       .XOO+++@@",
"      .OOOOO++++",
"      .OXXXO+@++"
};
