/* XPM */
static char *_02b33b1ff1c48f0a41d34164942c8ccGiuqFTq6ZI0LASum[] = {
/* columns rows colors chars-per-pixel */
"16 16 9 1 ",
"  c #249FDE",
". c #285CC4",
"X c #BA756A",
"o c #8E5252",
"O c #5B3138",
"+ c #5DAF8D",
"@ c #92DCBA",
"# c #328464",
"$ c white",
/* pixels */
"       .XoO+@@++",
"       .XO+@@@++",
"      .oooO#++#+",
"      .ooO+@@#++",
"      .OO+@@@+++",
"      .OoO++++++",
"      .XXoOO++++",
"       .XoO+++++",
"       .oO+@@+++",
"      .OO+@@@+++",
"      .ooO+#++#+",
"      .XooO#@@++",
"       .oO+@@@++",
"       .oOO+++++",
"      .OOOOO++++",
"      .OoooO+@++"
};
