/* XPM */
static char *result[] = {
/* columns rows colors chars-per-pixel */
"16 16 9 1 ",
"  c #249FDE",
". c #285CC4",
"X c #BA756A",
"o c #8E5252",
"O c #5B3138",
"+ c #5DAF8D",
"@ c #92DCBA",
"# c #328464",
"$ c white",
/* pixels */
"      .XXoO+@@++",
"      .oXO+@@@++",
"      .oooO#++#+",
"       .oO+@@#++",
"       .O+@@@+++",
"      .OoO++++++",
"      .XXoOO++++",
"  .....oXoO+++++",
"..ooooOooO+@@+++",
"oOOOoO+OO+@@@+++",
"oOO+O+@+@@+#++#+",
"OO+@++@@+@@#+#++",
"+++@@+@@++++++++",
"@++@@+#+++++++++",
"+#+#+#++++++++++",
"++++++++++++++++"
};
