/* XPM */
static char *d915378e37794e99885ab0bf5bc0b896IqR8saCq9goplSw2[] = {
/* columns rows colors chars-per-pixel */
"16 16 9 1 ",
"  c #5DAF8D",
". c #92DCBA",
"X c #5B3138",
"o c #8E5252",
"O c #BA756A",
"+ c #285CC4",
"@ c #249FDE",
"# c #328464",
"$ c white",
/* pixels */
"  .. XoOO+@@@@@@",
"  ... XOo+@@@@@@",
"     Xooo+@@@@@@",
"   .. Xoo+@@@@@@",
"   ... X+@@@@@@@",
"      Xo+@@@@@@@",
"    XXoOO+@@@@@@",
" #  #XoOo+@@@@@@",
"  #.. Xoo+@@@@@@",
"   ... XX+@@@@@@",
"      Xo+@@@@@@@",
"  .. Xoo+@@@@@@@",
"  ... XoO+@@@@@@",
"#  # XXoo+@@@@@@",
" # #XXXXX+@@@@@@",
"  . XoooX+@@@@@@"
};
