/* XPM */
static char *result[] = {
/* columns rows colors chars-per-pixel */
"16 16 9 1 ",
"  c #249FDE",
". c #285CC4",
"X c #8E5252",
"o c #5B3138",
"O c #5DAF8D",
"+ c #92DCBA",
"@ c #BA756A",
"# c #328464",
"$ c white",
/* pixels */
"                ",
"                ",
"                ",
"                ",
"                ",
"                ",
"                ",
"  ....  ..      ",
"..XXXX..X.      ",
"XoooXoOoo.      ",
"XooOoOoX.       ",
"ooO+OoXX.       ",
"OOO++OoX@.      ",
"+OO#OooXX.      ",
"O#O#ooooo.      ",
"OO+OoXXXo.      "
};
