/* XPM */
static char *result[] = {
/* columns rows colors chars-per-pixel */
"16 16 8 1 ",
"  c #5DAF8D",
". c #92DCBA",
"X c #5B3138",
"o c #8E5252",
"O c #BA756A",
"+ c #285CC4",
"@ c #249FDE",
"# c white",
/* pixels */
"  .. XoOO+@@@@@@",
"  ... XOo+@@@@@@",
".    Xooo+@@@@@@",
"   .. Xoo+@@@@@@",
"XX . . X+@@@@@@@",
"oXX X X++@@@@@@@",
"oXXXoX +@@@@@@@@",
"oXooooX+@@@@@@@@",
"XXoOOoX+@@@@@@@@",
"XXooOXX+@@@@@@@@",
"++oooXX+@@@@@@@@",
"@@+++++@@@@@@@@@",
"@@@@@@@@@@@@@@@@",
"@@@@@@@@@@@@@@@@",
"@@@@@@@@@@@@@@@@",
"@@@@@@@@@@@@@@@@"
};
